<?xml version="1.0" encoding="UTF-8"?>
<svg width="10px" height="10px" viewBox="0 0 10 10" version="1.1" xmlns="http://www.w3.org/2000/svg" xmlns:xlink="http://www.w3.org/1999/xlink">
    <title>place icon</title>
    <g id="页面-1" stroke="none" stroke-width="1" fill="none" fill-rule="evenodd" opacity="0.379999995">
        <g id="切图" transform="translate(-322.000000, -155.000000)">
            <g id="place-icon" transform="translate(322.000000, 155.000000)">
                <polygon id="路径" points="0 0 10 0 10 10 0 10"></polygon>
                <path d="M5,5 C4.54166667,5 4.16666667,4.625 4.16666667,4.16666667 C4.16666667,3.70833333 4.54166667,3.33333333 5,3.33333333 C5.45833333,3.33333333 5.83333333,3.70833333 5.83333333,4.16666667 C5.83333333,4.625 5.45833333,5 5,5 Z M7.5,4.25 C7.5,2.7375 6.39583333,1.66666667 5,1.66666667 C3.60416667,1.66666667 2.5,2.7375 2.5,4.25 C2.5,5.225 3.3125,6.51666667 5,8.05833333 C6.6875,6.51666667 7.5,5.225 7.5,4.25 Z M5,0.833333333 C6.75,0.833333333 8.33333333,2.175 8.33333333,4.25 C8.33333333,5.63333333 7.22083333,7.27083333 5,9.16666667 C2.77916667,7.27083333 1.66666667,5.63333333 1.66666667,4.25 C1.66666667,2.175 3.25,0.833333333 5,0.833333333 Z" id="形状" fill="#000000" fill-rule="nonzero"></path>
            </g>
        </g>
    </g>
</svg>